<!DOCTYPE svg PUBLIC "-//W3C//DTD SVG 1.1//EN" "http://www.w3.org/Graphics/SVG/1.1/DTD/svg11.dtd">
<!-- Uploaded to: SVG Repo, www.svgrepo.com, Transformed by: SVG Repo Mixer Tools -->
<svg fill="#ffffff" height="800px" width="800px" version="1.1" id="Capa_1" xmlns="http://www.w3.org/2000/svg" xmlns:xlink="http://www.w3.org/1999/xlink" viewBox="-77.46 -77.46 506.99 506.99" xml:space="preserve">
<g id="SVGRepo_bgCarrier" stroke-width="0">
<path transform="translate(-77.46, -77.46), scale(15.8434375)" d="M16,28.81481891980066C18.37422184679529,28.671641556459576,20.235170468796504,26.97493373965636,22.3341385192468,25.85611192258171C24.645937852365666,24.623843746781162,27.66313282826524,24.19614439915763,28.947937609061714,21.91312497546843C30.244718837794995,19.608824137143166,29.93610557906341,16.58531865283128,28.926769021492262,14.141411203222773C28.0046444545436,11.908670219327517,25.04836857211226,11.324586303210216,23.736992075329212,9.295858203680652C22.08131652763144,6.734491948026177,22.951288775250337,2.661438010644951,20.41305608019905,0.9705112231634789C17.936529104492333,-0.6793082797163954,14.410201053209128,0.09443533132437443,11.671336817723008,1.2579270386695C9.064410178651297,2.365370586589167,7.488882396647465,4.889495605006072,5.812859855284886,7.1727928160969C4.261468900213293,9.286300572470319,2.8273496161448075,11.462266632876918,2.296382005927537,14.029717183253442C1.7423761290796667,16.70856739191845,1.4282882841683016,19.65461368111606,2.734454286160263,22.058171736850696C4.016862203142754,24.418011048929273,6.761870817089012,25.431911090004032,9.155099285992772,26.650873410996535C11.331462347210616,27.759377928176896,13.562024821971288,28.961840925495842,16,28.81481891980066" fill="#000000" strokewidth="0"/>
</g>
<g id="SVGRepo_tracerCarrier" stroke-linecap="round" stroke-linejoin="round"/>
<g id="SVGRepo_iconCarrier"> <g> <path d="M337.102,56.035H14.968C6.714,56.035,0,62.749,0,71.001v39.147v61.6v109.32c0,8.252,6.714,14.966,14.968,14.966h322.134 c8.253,0,14.968-6.714,14.968-14.966v-109.32v-61.6V71.001C352.069,62.749,345.355,56.035,337.102,56.035z M56.535,251.763h-15v-47 h15V251.763z M86.535,251.763h-15v-47h15V251.763z M116.535,251.763h-15v-47h15V251.763z M278.777,258.997 c-5.521,0-10.826-1.651-15.315-4.714c-4.489,3.062-9.795,4.714-15.316,4.714c-15.02,0-27.239-12.22-27.239-27.241 c0-15.021,12.219-27.241,27.239-27.241c5.521,0,10.827,1.651,15.316,4.714c4.489-3.063,9.794-4.714,15.315-4.714 c15.021,0,27.242,12.22,27.242,27.241C306.02,246.776,293.799,258.997,278.777,258.997z M342.069,161.749H10v-41.6h332.069V161.749 z"/> </g> </g>
</svg>